<?xml version="1.0" encoding="UTF-8"?>
<svg id="Layer_1" xmlns="http://www.w3.org/2000/svg" version="1.1" viewBox="0 0 167 44">
  <!-- Generator: Adobe Illustrator 29.1.0, SVG Export Plug-In . SVG Version: 2.1.0 Build 142)  -->
  <defs>
    <style>
      .st0 {
        fill: #fff;
      }

      .st1 {
        fill: #df7b2f;
      }
    </style>
  </defs>
  <g>
    <rect class="st1" x="29.9" y="10.2" width="137" height="23.5"/>
    <path class="st0" d="M22,.8C10.3.8.8,10.3.8,22s9.5,21.2,21.2,21.2,21.2-9.5,21.2-21.2S33.7.8,22,.8h0Z"/>
    <path class="st1" d="M22,44C9.9,44,0,34.1,0,22S9.9,0,22,0s22,9.9,22,22-9.9,22-22,22h0ZM22,.8C10.3.8.8,10.3.8,22s9.5,21.2,21.2,21.2,21.2-9.5,21.2-21.2S33.7.8,22,.8h0Z"/>
    <circle class="st1" cx="22" cy="22" r="19.5"/>
  </g>
  <g>
    <path class="st0" d="M55.9,17.3h2.8v10.1h-2.8v-10.1Z"/>
    <path class="st0" d="M59.8,17.3h2.6l4.2,5.4v-5.4h2.8v10.1h-2.5l-4.3-5.6v5.6h-2.8v-10.1Z"/>
    <path class="st0" d="M69.7,26l1.6-1.9c1,.8,2.1,1.2,3.3,1.2s1.2-.3,1.2-.7h0c0-.4-.3-.7-1.7-1-2.2-.5-3.8-1.1-3.8-3.2h0c0-1.9,1.5-3.3,3.9-3.3s3.1.5,4.2,1.3l-1.4,2c-.9-.7-1.9-1-2.8-1s-1,.3-1,.7h0c0,.5.3.7,1.8,1,2.3.5,3.8,1.3,3.8,3.2h0c0,2.1-1.6,3.3-4.1,3.3s-3.5-.6-4.8-1.7Z"/>
    <path class="st0" d="M79.2,17.3h8.2v2.4h-5.4v1.5h4.9v2.2h-4.9v1.6h5.5v2.4h-8.2v-10.1Z"/>
    <path class="st0" d="M87.7,22.4h0c0-3,2.3-5.3,5.3-5.3s3.4.9,4.3,2.1l-2.1,1.6c-.6-.7-1.2-1.2-2.2-1.2-1.4,0-2.4,1.2-2.4,2.7h0c0,1.6,1,2.7,2.4,2.7s1.7-.5,2.3-1.2l2.1,1.5c-1,1.3-2.2,2.3-4.5,2.3s-5.2-2.2-5.2-5.2Z"/>
    <path class="st0" d="M100.4,19.8h-3v-2.5h8.9v2.5h-3v7.7h-2.8v-7.7Z"/>
    <path class="st0" d="M106.8,17.3h2.8v10.1h-2.8v-10.1Z"/>
    <path class="st0" d="M110.4,22.4h0c0-3,2.3-5.3,5.3-5.3s3.4.9,4.3,2.1l-2.1,1.6c-.6-.7-1.2-1.2-2.2-1.2-1.4,0-2.4,1.2-2.4,2.7h0c0,1.6,1,2.7,2.4,2.7s1.7-.5,2.3-1.2l2.1,1.5c-1,1.3-2.2,2.3-4.5,2.3s-5.2-2.2-5.2-5.2Z"/>
    <path class="st0" d="M120.7,17.3h2.8v10.1h-2.8v-10.1Z"/>
    <path class="st0" d="M124.6,17.3h3.9c3.6,0,5.7,2.1,5.7,5h0c0,3-2.1,5.1-5.8,5.1h-3.9v-10.1ZM128.6,25c1.7,0,2.8-.9,2.8-2.6h0c0-1.7-1.1-2.6-2.8-2.6h-1.1v5.2h1.1Z"/>
    <path class="st0" d="M137.8,17.3h2.7l4.3,10.2h-3l-.7-1.8h-3.9l-.7,1.8h-3l4.3-10.2ZM140.2,23.5l-1.1-2.9-1.1,2.9h2.3Z"/>
    <path class="st0" d="M144.2,26l1.6-1.9c1,.8,2.1,1.2,3.3,1.2s1.2-.3,1.2-.7h0c0-.4-.3-.7-1.7-1-2.2-.5-3.8-1.1-3.8-3.2h0c0-1.9,1.5-3.3,3.9-3.3s3.1.5,4.2,1.3l-1.4,2c-.9-.7-1.9-1-2.8-1s-1,.3-1,.7h0c0,.5.3.7,1.8,1,2.3.5,3.8,1.3,3.8,3.2h0c0,2.1-1.6,3.3-4.1,3.3s-3.5-.6-4.8-1.7Z"/>
  </g>
  <path class="st0" d="M34.5,17.4c-.6.8-1.2,1.5-2.2,1.7-1.4.3-2.8.9-4.2.8-.4,0-.7,0-1.2-.1.1.1.2.2.4.3.5.3.7.8.8,1.3.4,1.4.8,2.9,1.3,4.3.1.4.4.7.6.9.7.7,1.4,1.4,2.1,2.1.1.1.3.2.5.3-.1.4,0,.6.6.9,0,.1.1.3.2.4.1.1.3.2.4.4,0,.1,0,.3,0,.5-.2,0-.4-.1-.6-.2,0-.2-.1-.6-.3-.7-.3-.2-.4-.4-.5-.7,0,0-.2-.1-.3-.2-.2-.3-.3-.5-.5-.7-.7-.7-1.3-1.4-2.1-1.9-.5-.3-.6-.8-.7-1.2-.4-1.5-.7-3.1-1.3-4.5-.2-.6-.9-1.2-1.5-1.5-.6-.3-1.3-.6-1.9-1.1-.2-.1-.4-.3-.6-.3.3.6.6,1.1.9,1.7.5,1.1.9,2.3,1.4,3.4,0,0,0,.2,0,.3-.4,1.6-.9,3.1-1.3,4.7,0,.1,0,.3,0,.5.7,1.5,1.5,3,2.2,4.5.3.7.6,1.4,1,2.1.4.6.8,1.1,1.3,1.6,0,0,0,0,0,0,0,.5.3.8.7,1,0,.2,0,.4,0,.6-.3,0-.6-.1-.6-.6,0-.2-.3-.4-.4-.6-.1-.2-.2-.3-.3-.5-.5-.8-1-1.6-1.5-2.5,0-.1-.3-.2-.5-.4-.1-.2-.2-.5-.4-.8-.8-1.6-1.6-3.2-2.1-4.9,0-.1,0-.3,0-.4.1-.3.3-.6.4-.9.2-1,.4-2.1.7-3.1.1-.5,0-.8-.1-1.2-.5-1.2-1-2.5-1.4-3.7,0-.1-.1-.3-.3-.4v1.4c0,.4,0,.7,0,1.1,0,.7,0,1.5-.2,2.2,0,.8-.3,1.5-.9,2.1-.5-.6-.8-1.3-.8-2.1,0-1.2,0-2.5,0-3.7,0-.4,0-.7-.2-1.1-.3.8-.7,1.7-1,2.5-.2.4-.3.8-.5,1.2-.6,1-.3,2-.1,3,.1.7.3,1.3.4,2,0,.2.2.5.3.7,0,.1,0,.3,0,.4-.5,1.9-1.5,3.6-2.4,5.3,0,.1,0,.3-.2.4-.1.1-.3.2-.4.4-.5.9-1.1,1.8-1.6,2.7,0,0,0,.1-.1.2-.4.2-.5.6-.5,1.1-.2,0-.3.1-.5.2-.1-.4,0-.7.3-.8,0,0,0,0,0,0,.1-.6.6-1,1-1.4.3-.5.8-1,1-1.5,1-1.9,1.9-3.8,2.8-5.8,0-.2.1-.4,0-.5-.3-1.4-.7-2.8-1.1-4.2-.1-.5-.2-.8,0-1.3.7-1.5,1.4-3,2.1-4.5,0,0,0,0,0-.2-.3.2-.5.3-.7.5-.5.5-1.1.9-1.8,1-.1,0-.3.1-.4.2-.7.6-1.3,1.3-1.5,2.2-.3,1.4-.8,2.9-1.2,4.3,0,0,0,.2-.2.2-.9.8-1.8,1.5-2.7,2.3-.1.1-.2.3-.3.5-.1.1-.3.3-.4.4,0,.2-.1.3-.3.4-.2.1-.3.5-.5.8-.1,0-.3.1-.6.2.2-.3,0-.7.5-.8.2,0,.4-.3.2-.6.7-.2.9-.5.7-.8.2-.1.5-.2.7-.4.2-.2.4-.4.6-.6,2-1.8,2.2-2.3,2.9-5,.2-.8.5-1.6.7-2.4,0,0,.1-.2.2-.2.2-.2.4-.3.7-.6-.6,0-1.2,0-1.7,0-1.5,0-3-.6-4.4-1.2-.6-.3-1-.9-1.5-1.5-.2-.3,0-.5.3-.6.6-.2,1.2-.4,1.9-.4,1.7-.2,3.4,0,5.1.2,1,.1,2.1.2,3.1.4.6,0,.8-.1.8-.7,0,0,0-.2-.1-.2-.1,0-.3-.2-.4-.3-.4-.3-.7-.6-1.1-.8-.4-.3-.9-.4-.9-1.1,0-.7-.4-1.3-.6-2-.2-.5-.3-1-.4-1.6,0-.5-.3-.9-.7-1.2-.5-.4-.9-.9-1.4-1.3-.2-.2-1.1-1.3-1.2-1.5.6,0,.6.5.9.8.4.3.5.4,1,.8.5.5.9,1,1.4,1.4,0-.1.1-.2.2-.3,0,0,0,0,0,0,0,.5.1,1.1.3,1.6.2.9.5,1.9.7,2.8.1.5.4.9.8,1.1.5.3,1,.6,1.4.9.3-.3.5-.6.7-.9,0,0,0-.3,0-.4-.4-.6-.4-.6,0-.9,0-.4,0-.8-.3-1.1,0,0,0,0,0,0,0,0-.2-.2-.3-.3-.3-.2-.4-.4-.7-.7,0,0,0,0,.1-.1.3.3.6.7.8,1,0,0,0,0,0,0,0,0,.1.1.2.2,0,0,.1-.1.2-.2-.2-.9-.5-1.7-.5-2.7.2.9.4,1.7.6,2.6,0,0,0,0,.1,0,0-.7,0-1.4.1-2.2,0,0,0,0,.1,0v2.2c.5-.8.6-1.7.8-2.6,0,.9-.3,1.8-.5,2.7.5-.5.9-.9,1.3-1.3,0,0,0,0,.1.1-.3.3-.6.6-1,.9-.4.3-.3.7-.4,1.1,0,0,.1.2.2.2.3.2.3.4,0,.7-.4.3-.4.4,0,.8.2.2.3.5.5.8.6-.5,1.3-1,2-1.5.1-.1.2-.3.2-.5.4-1.2.7-2.4,1-3.7,0-.2,0-.5,0-.9.1.2.2.3.2.4,1.6-1.5,1.8-1.6,3.4-3.1,0,0,0,0,.1.1-.1.2-.5.6-.5,1.1-.3.2-.6.2-.9.4-.6.5-1.2,1.1-1.8,1.6-.1,0-.1.3-.2.4-.4,1.3-.9,2.6-1.2,3.9-.1.7-.5.8-.9,1-.4.3-.9.4-1.2,1,0,0-.2,0-.4,0,0,.1,0,.3,0,.5.1.3.2.5.7.5,1.6-.2,3.2-.4,4.7-.5,1.7-.1,3.4-.2,5.1.4.1,0,.3.1.4.2.3.2.3.4.1.6"/>
</svg>