<?xml version="1.0" encoding="UTF-8"?>
<svg id="Layer_1" xmlns="http://www.w3.org/2000/svg" version="1.1" viewBox="0 0 126.9 44">
  <!-- Generator: Adobe Illustrator 29.1.0, SVG Export Plug-In . SVG Version: 2.1.0 Build 142)  -->
  <defs>
    <style>
      .st0 {
        fill: #efc33b;
      }

      .st1 {
        fill: #4a84a6;
      }

      .st2 {
        fill: #fff;
      }
    </style>
  </defs>
  <g>
    <g>
      <rect class="st1" x="1680.4" y="-830.6" width="137" height="23.5"/>
      <path class="st2" d="M1672.5-840.1c-11.7,0-21.2,9.5-21.2,21.2s9.5,21.2,21.2,21.2,21.2-9.5,21.2-21.2-9.5-21.2-21.2-21.2h0Z"/>
      <path class="st1" d="M1672.5-796.8c-12.1,0-22-9.9-22-22s9.9-22,22-22,22,9.9,22,22-9.9,22-22,22h0ZM1672.5-840.1c-11.7,0-21.2,9.5-21.2,21.2s9.5,21.2,21.2,21.2,21.2-9.5,21.2-21.2-9.5-21.2-21.2-21.2h0Z"/>
      <path class="st1" d="M1672.4-838.4c-10.8,0-19.5,8.7-19.5,19.5s8.7,19.5,19.5,19.5,19.5-8.7,19.5-19.5-8.7-19.5-19.5-19.5M1672.5-804.2c-2.8,0-5-3-5-6.8s2.2-6.8,5-6.8,5,3,5,6.8-2.2,6.8-5,6.8M1678.8-819c-1.8-1-4.7-1.1-6.4-1.1s-4.7.2-6.4,1.1c-4,2.2-5.7,3.2-5.7-2.1s4.1-12.5,11.9-12.5,12.3,7.1,12.3,12.5-1.7,4.3-5.7,2.1"/>
    </g>
    <g>
      <path class="st2" d="M1706.2-823.5h8.1v2.5h-5.3v1.7h4.8v2.3h-4.8v3.6h-2.8v-10.1h0Z"/>
      <path class="st2" d="M1714.8-817.8v-5.7h2.9v5.6c0,1.5.7,2.2,1.9,2.2s1.9-.7,1.9-2.1v-5.7h2.9v5.6c0,3.3-1.9,4.7-4.8,4.7s-4.7-1.5-4.7-4.6h-.1Z"/>
      <path class="st2" d="M1725.2-823.5h2.6l4.2,5.4v-5.4h2.8v10.1h-2.5l-4.3-5.6v5.6h-2.8v-10.1h0Z"/>
      <path class="st2" d="M1735.5-818.4h0c0-3,2.3-5.3,5.5-5.3s3,.6,4.1,1.5l-1.7,2c-.7-.6-1.5-1-2.5-1-1.5,0-2.6,1.2-2.6,2.8h0c0,1.7,1.1,2.8,2.8,2.8s1.2,0,1.6-.4v-1.2h-2v-2.1h4.7v4.6c-1.1.9-2.6,1.6-4.4,1.6-3.2,0-5.5-2.2-5.5-5.2h0Z"/>
      <path class="st2" d="M1746.3-823.5h2.8v10.1h-2.8v-10.1Z"/>
      <path class="st2" d="M1749.9-818.4h0c0-3,2.3-5.3,5.3-5.3s3.4.9,4.3,2.1l-2.1,1.6c-.6-.7-1.2-1.2-2.2-1.2s-2.4,1.2-2.4,2.7h0c0,1.6,1,2.7,2.4,2.7s1.7-.5,2.3-1.2l2.1,1.5c-1,1.3-2.2,2.3-4.5,2.3s-5.2-2.2-5.2-5.2h0Z"/>
      <path class="st2" d="M1760.2-823.5h2.8v10.1h-2.8v-10.1Z"/>
      <path class="st2" d="M1764.1-823.5h3.9c3.6,0,5.7,2.1,5.7,5h0c0,3-2.1,5.1-5.8,5.1h-3.9v-10.1h.1ZM1768.1-815.8c1.7,0,2.8-.9,2.8-2.6h0c0-1.7-1.1-2.6-2.8-2.6h-1.1v5.2h1.1Z"/>
      <path class="st2" d="M1777.3-823.6h2.7l4.3,10.2h-3l-.7-1.8h-3.9l-.7,1.8h-3l4.3-10.2h0ZM1779.7-817.4l-1.1-2.9-1.1,2.9h2.3-.1Z"/>
      <path class="st2" d="M1783.6-814.9l1.6-1.9c1,.8,2.1,1.2,3.3,1.2s1.2-.3,1.2-.7h0c0-.4-.3-.7-1.7-1-2.2-.5-3.8-1.1-3.8-3.2h0c0-1.9,1.5-3.3,3.9-3.3s3.1.5,4.2,1.3l-1.4,2c-.9-.7-1.9-1-2.8-1s-1,.3-1,.7h0c0,.5.3.7,1.8,1,2.3.5,3.8,1.3,3.8,3.2h0c0,2.1-1.6,3.3-4.1,3.3s-3.5-.6-4.8-1.7h-.2Z"/>
    </g>
  </g>
  <g>
    <g>
      <rect class="st0" x="29.9" y="10.2" width="97" height="23.5"/>
      <path class="st2" d="M22,.8C10.3.8.8,10.3.8,22s9.5,21.2,21.2,21.2,21.2-9.5,21.2-21.2S33.7.8,22,.8h0Z"/>
      <path class="st0" d="M22,44C9.9,44,0,34.1,0,22S9.9,0,22,0s22,9.9,22,22-9.9,22-22,22h0ZM22,.8C10.3.8.8,10.3.8,22s9.5,21.2,21.2,21.2,21.2-9.5,21.2-21.2S33.7.8,22,.8h0Z"/>
      <circle class="st0" cx="22" cy="22" r="19.5"/>
    </g>
    <g>
      <path class="st2" d="M55.4,22.4h0c0-2.9,2.3-5.3,5.5-5.3s5.5,2.3,5.5,5.2h0c0,2.9-2.3,5.3-5.5,5.3s-5.5-2.3-5.5-5.2ZM63.5,22.4h0c0-1.5-1.1-2.8-2.6-2.8s-2.6,1.2-2.6,2.7h0c0,1.5,1.1,2.8,2.6,2.8s2.6-1.2,2.6-2.7Z"/>
      <path class="st2" d="M69.2,19.8h-3v-2.5h8.9v2.5h-3v7.7h-2.8v-7.7Z"/>
      <path class="st2" d="M75.5,17.3h4.8c1.6,0,2.6.4,3.3,1.1.6.6.9,1.4.9,2.4h0c0,1.6-.8,2.6-2.1,3.1l2.4,3.5h-3.2l-2-3.1h-1.2v3.1h-2.8v-10.1ZM80.2,22.2c1,0,1.5-.5,1.5-1.2h0c0-.8-.6-1.2-1.5-1.2h-1.8v2.4h1.9Z"/>
      <path class="st2" d="M84.9,22.4h0c0-2.9,2.3-5.3,5.5-5.3s5.5,2.3,5.5,5.2h0c0,2.9-2.3,5.3-5.5,5.3s-5.5-2.3-5.5-5.2ZM92.9,22.4h0c0-1.5-1.1-2.8-2.6-2.8s-2.6,1.2-2.6,2.7h0c0,1.5,1.1,2.8,2.6,2.8s2.6-1.2,2.6-2.7Z"/>
      <path class="st2" d="M95.7,26l1.6-1.9c1,.8,2.1,1.2,3.3,1.2s1.2-.3,1.2-.7h0c0-.4-.3-.7-1.7-1-2.2-.5-3.8-1.1-3.8-3.2h0c0-1.9,1.5-3.3,3.9-3.3s3.1.5,4.2,1.3l-1.4,2c-.9-.7-1.9-1-2.8-1s-1,.3-1,.7h0c0,.5.3.7,1.8,1,2.3.5,3.8,1.3,3.8,3.2h0c0,2.1-1.6,3.3-4.1,3.3s-3.5-.6-4.8-1.7Z"/>
    </g>
    <path class="st2" d="M11.3,24.9c3,1.3,9.7.8,9.7-3.5,0-2.2-3.2-4-4.5-5.4-.6-.6-.9-1.3-.9-2.2,0-3.7,4.3-1.2,5.2-.7,1.5.9,2.8,1.3,4.5,1.4.8,0,1.6,0,2.4,0,1,0,6.6,1.6,3.2,4-1,.7-2.2,1.1-3.2,1.7-1.4.8-2.5,2.4-1.6,4,.7,1.3,1.8,1.8.9,3.6-.5,1-1.3,2.3-1.2,3.5.2,2.4,2.5,2.7,4.5,2.8.9,0,2-1.3.7-1.3-2.9-.1-3.7-1.4-2.6-3.9.2-.4,1.8-2.1,1.4-3-.6-1.2-2-2-2-3.5,0-1.3,2.9-2.2,3.8-2.8,5.7-3.4-.4-6.4-4.4-6.5-4.3-.2-10.2-5.9-13.3-.3-1,1.9.7,3.7,2,4.8,1,.9,2,1.7,2.8,2.7,2.9,3.8-4.9,3.6-6.2,3.1-.7-.3-2.2.7-1.1,1.2"/>
  </g>
</svg>