<?xml version="1.0" encoding="UTF-8"?>
<svg id="Layer_1" xmlns="http://www.w3.org/2000/svg" version="1.1" viewBox="0 0 56 311.33">
  <!-- Generator: Adobe Illustrator 29.1.0, SVG Export Plug-In . SVG Version: 2.1.0 Build 142)  -->
  <defs>
    <style>
      .st0 {
        fill: #274e5f;
      }

      .st1 {
        fill: #fff;
      }

      .st2 {
        fill: #609440;
      }
    </style>
  </defs>
  <g>
    <rect class="st0" x=".02" width="55.96" height="50.4"/>
    <path class="st1" d="M31.9,11.79s.04-.04.06-.06c.33.29,2.49,1.91,5.94-1.18-3.62-2.03-5.99,1.14-5.99,1.14,0,0,.01.01.03.03-.02.02-.04.04-.06.06-.18.19-.46.45-.79.8-.31.37-.73.79-1.13,1.33-.43.52-.87,1.14-1.34,1.83-.45.7-.93,1.46-1.4,2.29-.46.83-.92,1.73-1.36,2.67-.21.47-.43.96-.64,1.45-.2.5-.4,1-.61,1.51-.39,1.02-.76,2.07-1.1,3.12-1.36,4.23-2.24,8.59-2.74,11.88-.5,3.29-.64,5.52-.64,5.52l.85.05s.02-.54.09-1.5c.07-.96.2-2.33.41-3.97.04-.35.1-.72.15-1.1.77.31,2.93.77,5.33-2.48-2.84-.9-4.5.69-5.21,1.67.13-.86.28-1.75.45-2.69.09.06,2.68,1.65,5.63-2.34-3.77-1.19-5.47,2-5.62,2.31.2-1.07.43-2.17.68-3.29.84.39,2.86.83,5.43-1.98-2.54-1.11-4.29.03-5.18.91.2-.8.41-1.6.64-2.39.64.37,2.8,1.25,5.65-1.86-2.84-1.24-4.71.34-5.46,1.22.25-.86.53-1.71.82-2.55.65.38,2.81,1.23,5.64-1.86-2.75-1.2-4.58.24-5.38,1.13.15-.4.3-.79.44-1.18.2-.49.41-.98.6-1.45.02-.04.04-.08.06-.12.58.36,2.78,1.34,5.69-1.83-2.72-1.19-4.53.2-5.35,1.1.29-.63.59-1.25.89-1.82.17-.32.34-.62.51-.92.42.36,2.51,1.85,5.94-1.07-2.82-1.67-4.93-.09-5.7.66.2-.34.39-.66.59-.97.34-.51.65-.98.96-1.41.38.34,2.49,1.89,5.95-1.06-2.63-1.56-4.64-.28-5.53.5.36-.49.73-.89,1.01-1.23.32-.36.59-.63.76-.82Z"/>
  </g>
  <g>
    <rect class="st2" x=".02" y="52.19" width="55.96" height="50.4"/>
    <path class="st1" d="M13.61,77.76v11.11s8,0,8,0l2.61,2.96.12.05s1,.4,1.81.4,2.39-.63,2.71-.76l16.35-8.44s1.27-.66,1.58-1.86c.18-.7.01-1.42-.49-2.15-1.17-1.69-3.24-1.12-4.18-.58l-4.26,2.38h-6.17v-10.81s-.9-3.88-4.48-3.88c-3.78,0-3.23,1.73-4.84,1.91,2.33.36,2.51,2.15,5.2,2.51h2.87v10.27h-3.96s-3.36-3.11-3.36-3.11h-9.53ZM14.69,78.84h8.03s7.01,6.49,7.01,6.49c.01,0,.34.32.33.77-.01.4-.3.85-.84,1.29-.66.54-1.3.65-1.97.35-.52-.23-.85-.63-.86-.63l-3.77-4.49-.82.69,3.76,4.48c.04.05.5.59,1.24.93.73.33,1.86.51,3.09-.5.81-.66,1.23-1.37,1.24-2.12,0-.08,0-.16-.01-.23l11.54-6.44s.73-.41,1.46-.41c.47,0,.95.16,1.3.66.32.47.43.88.33,1.27-.18.72-1.02,1.16-1.02,1.17l-16.31,8.42c-.61.24-1.82.66-2.26.66s-1.01-.17-1.3-.28l-2.76-3.13h-7.41v-8.96Z"/>
  </g>
  <g>
    <rect class="st0" x=".02" y="104.37" width="55.96" height="50.4"/>
    <path class="st1" d="M37.32,120.25c.1-.93.31-1.83-.18-2.17-.5-.34-.15-.79-.61-1.23-.46-.44-.84.04-1.36-.03-1.16-.17-1.52.94-1.52.94,0,0-.08-.05-.68.45.01.14.01.31,0,.49.26-.26.56-.43.77-.41.54.07.23.74.23.74-.38-.05-1.03.02-.35.26.68.23.42.47.17,1.2-.23.67-.47.13-1.02-.33,0,.04-.02.08-.03.13.42.16.74.72.39.89,0,0-.66.55-.36.73.3.18.79-.21,1.08-.08.3.12.69.53.39.92-.3.39-.79-.09-1.26-.4-.46-.3-.49.28-.95.41-.05.01-.09.02-.14.04-.06.15-.12.29-.18.45-.08.18-.15.36-.22.54-.01.07-.03.15-.07.24-.03.08-.07.15-.12.21-.09.23-.18.45-.26.68.78-.33,1.04-1.04.87-1.67.4-.18.61-.31.61-.31.39-.21.89.13,1.14.43.25.29.23,1.17-.6.9-.83-.27-.98-.28-.38.19.61.47.43.96.13,1.21-.29.25-.61.36-1.2-.16-.59-.52-.72-.09.24.77.95.86-.11,1.54-.96,1.07-.25-.14-.44-.28-.58-.41-.02.07-.04.13-.07.2.35.23.75.53.84.75.16.35.03,1.65-1.31.83-.04.15-.08.3-.12.44.07.04.15.09.25.13.84.43.54,1.09.04,1.44-.22.15-.47.14-.68.07-.03.12-.05.24-.07.36.22.18.5.43.59.58-.38.46-.29,1.01-.29,1.01,0,0-.27-.04-.58-.02-.03.22-.06.44-.08.64.67-.28,1.33.03,1.25.53.1-.17.2-.35.3-.53-.35-.42-.61-.89-.5-1.15.27-.56.74-.34,1.1-.05.06-.13.13-.28.19-.42-.35-.26-.68-.66-.44-1.23.24-.56.77-.58,1.18-.5.05-.13.11-.26.17-.39-.26-.18-.45-.44-.26-.8.17-.33.47-.4.75-.37.07-.16.14-.32.2-.48-.17-.15-.21-.35-.08-.67.09-.21.29-.29.51-.32.06-.14.12-.28.18-.41-.13-.12-.19-.28-.09-.51.11-.25.3-.35.51-.37.08-.16.15-.33.23-.48-.1-.13-.14-.3-.08-.51.09-.31.32-.4.57-.39.08-.14.16-.27.24-.41-.46-.33-.24-.79.29-.72.06,0,.09.03.14.04.09-.13.18-.26.27-.38-.11-.09-.22-.18-.32-.26-.42-.34.03-.77.55-.55.1.04.18.09.27.15.13-.15.26-.28.39-.42-.03,0-.07,0-.1-.02-.59-.25-1.39-.15-1.55.42-.91-.9-.96-.91-.78-1.33.17-.41.95-.41,1.37-.31.42.1.7-.27-.9-.41-.4,0,.17-.41-.21-.84.45-.69.19-.83-.08-1.35-.27-.52-.02-.6.44-.78.45-.19.43.32.51.7.08.38.27.44.2-.59-.08-.25.38-.38.83-.19.46.19.89.64.32.51-.38-.09-.58.1-.07.35.51.24,1.43,1.01.49,1.07-.94.06-1.14-.05-.62.25.52.3,1.06.66.91,1.03-.15.37-.61.55-.93-.09-.32-.65-.78-.7-.65-.11.13.59.82.61,1.17.87.1.07.15.19.16.32.12-.11.26-.2.38-.29.02-.24.03-.46.05-.68ZM30.31,130.89s-.17.33,0,.59c-.37.06-.9-.09,0-.59ZM30.77,130.07l-.33-.62s.42-.36.84-.34c0,0-.11.52.06.62-.45.05-.58.35-.58.35ZM31.67,128.3c-.18-.21,0-.38.52-.53,0,0,.13.32-.52.53ZM32.52,127.12l-.13-.65.32-.24s.05.4.11.69l-.3.2ZM33.45,125.5c-.19-.05-.08-.84-.08-.84,0,0,.05-.11.12.21.08.33.14.68-.05.62ZM36.3,115.93c.35-.71.83-1.34,1.03-1.8.19-.46.39-.35-.14.85-.53,1.2-.42,1.76-.05,1.19.37-.57.9-1.37.69-.49-.21.88-.49,1.81-.49,1.81,0,0-.31-.1-.09-.6.21-.5.66-1.5.15-.88-.5.62-.59.58-.76.54-.17-.04.32-1.26-.04-.66-.36.6-.92.66-.74.04.18-.62.57-1.29-.09-.42-.66.88-.44,1.16-.98,1.17-.25.03.18-.24.47-.8.29-.55,1.05-2.05,1.22-1.69.17.37-.17,1.3-.36,1.68-.19.38.02.41.19.05ZM28.75,134.65c0,.15,0,.28.01.4.15-.01.3,0,.42.03.2-.2.39-.43.58-.69-.31.24-.73.27-1.02.26ZM30.59,125.05c1.96-5.41,2.6-7.62,1.24-7.65-.53-.01-.57.73-1.18,1.65-.16.25-.31.47-.48.72-.51.99-1.13,2.23-1.7,3.46-1.27,2.76-2.2,6.31-2.68,9.89-.35,2.56-1.09,7.49-3.18,9.57-1.43,1.43-1.97,3.9-1.18,4.45,0,0,.4-.05,1.3-1.93.9-1.88,1.65-1.88,3.11-3.04,1.08-.86,1.84-1.95,2.47-5.38.1-4.94.32-6.35,2.28-11.75ZM23.62,139.68c.63-1.77,1.38-5.59,2.19-9.66.73-3.66,2.18-6.71,3.17-8.49-.47.67-1.09,1.57-1.96,2.82-2.72,3.9-5.9,8.9-7.39,14.35-1.49,5.44.58,6.91.58,6.91,0,0,.2-1.42.16-2.94-.39-4.76,2.6-8.24,2.6-8.24,0,0-2.23,4.69-2.02,7.7.14,2.09-.35,3.69-.35,3.69.75-2.29,2.02-3.34,3.02-6.14ZM28.33,136.2c-.22.34-.35.54-.35.54,0,0,.13.03.34.04,0-.2,0-.39.01-.58ZM32.53,132.31c1.94-4.83,4.2-11.7,8.73-12.17-1.73-.34-3.97-.22-6.94,5.81-3.31,6.72-3.42,8.55-5.95,10.83.85.02,2.57-.51,4.16-4.47ZM22.15,147.5c.83-.83,1.18-3.32,3.23-4.23,2.05-.91,2.39-2.22,3.22-4.71,1.28-.86,2.8-1.02,4.86-6.82,2.66-7.47,4.79-9.56,5.81-10.03.77-.36,1.26.11.41.54-.82.42-1.58,1.36-2.53,3.53-1.74,4-1.65,9.54-2.73,14.75-1.59,7.71-7.6,9.37-10.93,7.96,0,0,2.72.18,4.44-3.39,1.83-3.8,3.87-6,3.87-6,0,0-2.19,1.76-4.45,5.59-1.64,2.78-3.54,3.29-5.21,2.8Z"/>
  </g>
  <g>
    <rect class="st0" y="208.73" width="56" height="50.43"/>
    <path class="st1" d="M21.33,226.39c2.98-2.98,8.46-3.61,11.44-2.82,2.98.78,8.46,2.66,8.46,3.92s-1.1,2.2-4.86.31c-3.76-1.88-10.34-.31-10.66,1.88,8.15-2.82,9.87-.63,9.87,1.25-.09.73-6.11.31-8.31,2.19-2.19,1.88-6.27,1.57-6.27,1.57h-5.64v-7.21s4.39.47,5.95-1.09M32.93,233.75c-1.47,0-2.66.7-2.66,1.57s1.19,1.57,2.66,1.57,2.66-.7,2.66-1.57-1.19-1.57-2.66-1.57M37.47,237.2c-1.47,0-2.66.7-2.66,1.57s1.19,1.57,2.66,1.57,2.66-.7,2.66-1.57-1.19-1.57-2.66-1.57M31.36,239.39c-1.47,0-2.67.7-2.67,1.57s1.19,1.57,2.67,1.57,2.66-.7,2.66-1.57-1.19-1.57-2.66-1.57M19.3,248.32h25.07s-.16-4.7-11.91-4.7-13.16,4.7-13.16,4.7"/>
  </g>
  <g>
    <rect class="st2" x=".02" y="156.56" width="55.96" height="50.4"/>
    <path class="st1" d="M26.78,185.03c3.25-.59,8.07-2.63,10.93-8.18-.58,5.13-1.47,11.33-13.32,13.47-5.19.94-9.19-3.54-9.19-3.54-1.43-1.42-.62-3.41,2.24-2.42,2.86.99,6.58,1.16,9.34.66ZM20.15,191.92c-2.82.17-3.44,2.3-1.58,3.3,2.36,1.28,6.34,3.55,12.83,2.37,12.99-2.35,14.4-14,13.87-16.92s-2.8-4.35-2.8-4.35l-.84-5.55s-.32-1.79-2.11-1.46-1.27,2.24-1.27,2.24l1.11,6.17c-2.03,11.93-11.73,13.01-14.98,13.6,0,0-1.43.43-4.25.6Z"/>
  </g>
  <g>
    <rect class="st2" x=".02" y="260.93" width="55.96" height="50.4"/>
    <path class="st1" d="M17.57,288.01c0,1.49.18,2.49.23,3.14-1.33-2.63-1.83-3.86-1.84-5.28,0-2.05.23-3,.93-4.65.62-1.45,2.14-4.38,8.74-3.88,6.6.5,8.61-.86,8.61-.86h.28s-.1,1.12-1.89,1.53c-1.79.41-3.26.62-4.46.72-2.47.21-5.35-.05-8.03,2.78-1.82,1.92-2.58,4.68-2.58,6.5ZM24.11,285c2.13-2.99,4.71-3.52,6.63-4.63,1.36-.78,2.5-1.44,3.34-2.55-.49.21-1.1.4-1.83.54-.05.02-.1.03-.15.05-1.41.41-2.67.52-3.9.63-2.51.22-4.93.43-7.53,3.17-1.28,1.35-1.76,2.73-2.16,4.05-.77,3.07.09,6.37,2.42,9.22-.06-1.1-.04-2.15.08-2.87.51-3.02,1.28-5.06,3.1-7.6ZM31.77,296.37l.23-.24c.89-.94,1.7-2.08,2.43-3.38,2.04-3.65,1.85-7.23,1.69-10.39-.09-1.63-.17-3.17.09-4.53h0s0-.03,0-.03c-.03-.2-.07-.39-.09-.58l-.02-.15-.11.11c-.92.99-1.04,2.53-1,3.5-.23-1.07.13-2.58.45-3.7l.14-.48-.27.42c-.12.18-.37.38-.73.58h-.02s0,.02,0,.02c-.9,1.42-2.2,2.17-3.71,3.04-1.9,1.09-4.04,2.34-6.14,5.28-2.91,4.08-3.39,8.47-3.47,10.18.18.96.67,1.54,1.45,1.73.49.12,1,.16,1.49.11,1.56-.17,2.76-1.17,3.29-1.69-.24.43-.78,1.17-1.98,1.96l-.09.06.09.06c.61.44,1.31.62,2.08.53,1.86-.2,3.61-1.83,4.22-2.46v.04ZM41.84,294.94c2.06-3.9,1.19-7.61-2.61-11.03-1.72-1.55-2.34-3.08-2.56-4.1-.1-.33-.2-.7-.28-1.11l-.1-.48-.04.49c-.1,1.12-.03,2.34.03,3.63.04.7.12,1.42.21,2.17.31,2.67.62,5.44-.98,8.31-1.6,2.86-3.97,4.89-7.06,6.04l-.08.03s-.09.04-.13.06l-.21.09.23.05c1.05.25,2.11.32,3.14.21,2.46-.26,4.52-1.47,6.13-2.68-1.12,1.05-2.73,2.02-5.14,3.12l-.33.15h.36c.6-.02,1.19-.06,1.74-.12,1.53-.16,2.91-.49,4.09-.99,1.55-.85,2.66-2.04,3.62-3.85ZM38.86,280.35c-1.59-1.52-1.64-2.22-1.64-2.22v-.35s-.14.32-.14.32c-.01.03-.31.74-.15,2.12v.02c.33,1.07,1.05,2.57,2.61,3.64,2.29,1.55,5.65,5.06,2.43,11.14-.52.98-1.08,1.77-1.71,2.42l.1.11c2.12-1.65,3.22-4.13,3.29-7.37.09-4.48-2.96-8.08-4.79-9.83ZM38.44,274.66c-.17.37-.68,1.38-.99,2,0,0-.64,1.1-.77,2.32-.02-.11-.25-1.23-.25-1.23-.03-.19-.19-1.19-.19-1.19,0,0-.6.66-.68.77.03-.12.63-2.24.63-2.24,0,0-1.02,2.01-1.72,2.19.47-.53.37-1.1.37-1.1h-.39c1.18-.78,1.61-2.3,1.69-2.62l2.29,1.1ZM20.7,297.3c-.47.45-1.65.22-2.31.68,1.34.02,2.29-.4,2.16.97-.12,1.27.56,1.78-1.36,2.13,2.96.05.89-3.73,2.31-2.22,1.59,1.68-1.36,2.08-.74,3.52-.33-1.32,1.99-1.79,1.63-2.69-.22-.56.42-.98,1.12-1.17,0,0-2.53.2-2.8-2.47.05.84,0,1.25,0,1.25Z"/>
  </g>
</svg>