<?xml version="1.0" encoding="UTF-8"?>
<svg id="Layer_1" xmlns="http://www.w3.org/2000/svg" version="1.1" viewBox="0 0 167 44">
  <!-- Generator: Adobe Illustrator 29.1.0, SVG Export Plug-In . SVG Version: 2.1.0 Build 142)  -->
  <defs>
    <style>
      .st0 {
        fill: #4a84a6;
      }

      .st1 {
        fill: #fff;
      }

      .st2 {
        fill: #b8ac3d;
      }
    </style>
  </defs>
  <g>
    <g>
      <rect class="st0" x="1593.3" y="-943.1" width="137" height="23.5"/>
      <path class="st1" d="M1585.4-952.6c-11.7,0-21.2,9.5-21.2,21.2s9.5,21.2,21.2,21.2,21.2-9.5,21.2-21.2-9.5-21.2-21.2-21.2h0Z"/>
      <path class="st0" d="M1585.4-909.3c-12.1,0-22-9.9-22-22s9.9-22,22-22,22,9.9,22,22-9.9,22-22,22h0ZM1585.4-952.6c-11.7,0-21.2,9.5-21.2,21.2s9.5,21.2,21.2,21.2,21.2-9.5,21.2-21.2-9.5-21.2-21.2-21.2h0Z"/>
      <path class="st0" d="M1585.3-950.9c-10.8,0-19.5,8.7-19.5,19.5s8.7,19.5,19.5,19.5,19.5-8.7,19.5-19.5-8.7-19.5-19.5-19.5M1585.4-916.7c-2.8,0-5-3-5-6.8s2.2-6.8,5-6.8,5,3,5,6.8-2.2,6.8-5,6.8M1591.7-931.5c-1.8-1-4.7-1.1-6.4-1.1s-4.7.2-6.4,1.1c-4,2.2-5.7,3.2-5.7-2.1s4.1-12.5,11.9-12.5,12.3,7.1,12.3,12.5-1.7,4.3-5.7,2.1"/>
    </g>
    <g>
      <path class="st1" d="M1619.1-936h8.1v2.5h-5.3v1.7h4.8v2.3h-4.8v3.6h-2.8v-10.1h0Z"/>
      <path class="st1" d="M1627.7-930.3v-5.7h2.9v5.6c0,1.5.7,2.2,1.9,2.2s1.9-.7,1.9-2.1v-5.7h2.9v5.6c0,3.3-1.9,4.7-4.8,4.7s-4.7-1.5-4.7-4.6h-.1Z"/>
      <path class="st1" d="M1638.1-936h2.6l4.2,5.4v-5.4h2.8v10.1h-2.5l-4.3-5.6v5.6h-2.8v-10.1h0Z"/>
      <path class="st1" d="M1648.4-930.9h0c0-3,2.3-5.3,5.5-5.3s3,.6,4.1,1.5l-1.7,2c-.7-.6-1.5-1-2.5-1-1.5,0-2.6,1.2-2.6,2.8h0c0,1.7,1.1,2.8,2.8,2.8s1.2,0,1.6-.4v-1.2h-2v-2.1h4.7v4.6c-1.1.9-2.6,1.6-4.4,1.6-3.2,0-5.5-2.2-5.5-5.2h0Z"/>
      <path class="st1" d="M1659.2-936h2.8v10.1h-2.8v-10.1Z"/>
      <path class="st1" d="M1662.8-930.9h0c0-3,2.3-5.3,5.3-5.3s3.4.9,4.3,2.1l-2.1,1.6c-.6-.7-1.2-1.2-2.2-1.2s-2.4,1.2-2.4,2.7h0c0,1.6,1,2.7,2.4,2.7s1.7-.5,2.3-1.2l2.1,1.5c-1,1.3-2.2,2.3-4.5,2.3s-5.2-2.2-5.2-5.2h0Z"/>
      <path class="st1" d="M1673.1-936h2.8v10.1h-2.8v-10.1Z"/>
      <path class="st1" d="M1677-936h3.9c3.6,0,5.7,2.1,5.7,5h0c0,3-2.1,5.1-5.8,5.1h-3.9v-10.1h.1ZM1681-928.3c1.7,0,2.8-.9,2.8-2.6h0c0-1.7-1.1-2.6-2.8-2.6h-1.1v5.2h1.1Z"/>
      <path class="st1" d="M1690.2-936.1h2.7l4.3,10.2h-3l-.7-1.8h-3.9l-.7,1.8h-3l4.3-10.2h0ZM1692.6-929.9l-1.1-2.9-1.1,2.9h2.3-.1Z"/>
      <path class="st1" d="M1696.5-927.4l1.6-1.9c1,.8,2.1,1.2,3.3,1.2s1.2-.3,1.2-.7h0c0-.4-.3-.7-1.7-1-2.2-.5-3.8-1.1-3.8-3.2h0c0-1.9,1.5-3.3,3.9-3.3s3.1.5,4.2,1.3l-1.4,2c-.9-.7-1.9-1-2.8-1s-1,.3-1,.7h0c0,.5.3.7,1.8,1,2.3.5,3.8,1.3,3.8,3.2h0c0,2.1-1.6,3.3-4.1,3.3s-3.5-.6-4.8-1.7h-.2Z"/>
    </g>
  </g>
  <g>
    <g>
      <rect class="st2" x="30" y="10.1" width="137" height="23.5"/>
      <path class="st1" d="M22,.7C10.3.7.8,10.2.8,21.9s9.5,21.2,21.2,21.2,21.2-9.5,21.2-21.2S33.7.7,22,.7h0Z"/>
      <path class="st2" d="M22,43.9C9.9,43.9,0,34,0,21.9S9.9-.1,22-.1s22,9.9,22,22-9.9,22-22,22h0ZM22,.7C10.3.7.8,10.2.8,21.9s9.5,21.2,21.2,21.2,21.2-9.5,21.2-21.2S33.7.7,22,.7h0Z"/>
      <circle class="st2" cx="22" cy="21.9" r="19.5"/>
    </g>
    <g>
      <path class="st1" d="M59.3,17.2h2.7l4.3,10.2h-3l-.7-1.8h-3.9l-.7,1.8h-3l4.3-10.2ZM61.8,23.4l-1.1-2.9-1.1,2.9h2.3Z"/>
      <path class="st1" d="M65.6,22.3h0c0-3,2.3-5.3,5.3-5.3s3.4.9,4.3,2.1l-2.1,1.6c-.6-.7-1.2-1.2-2.2-1.2-1.4,0-2.4,1.2-2.4,2.7h0c0,1.6,1,2.7,2.4,2.7s1.7-.5,2.3-1.2l2.1,1.5c-1,1.3-2.2,2.3-4.5,2.3s-5.2-2.2-5.2-5.2Z"/>
      <path class="st1" d="M79.2,17.2h2.7l4.3,10.2h-3l-.7-1.8h-3.9l-.7,1.8h-3l4.3-10.2ZM81.7,23.4l-1.1-2.9-1.1,2.9h2.3Z"/>
      <path class="st1" d="M86.5,17.2h4.8c1.6,0,2.6.4,3.3,1.1.6.6.9,1.4.9,2.4h0c0,1.6-.8,2.6-2.1,3.1l2.4,3.5h-3.2l-2-3.1h-1.2v3.1h-2.8v-10.1ZM91.2,22.1c1,0,1.5-.5,1.5-1.2h0c0-.8-.6-1.2-1.5-1.2h-1.8v2.4h1.9Z"/>
      <path class="st1" d="M96.3,17.2h2.8v10.1h-2.8v-10.1Z"/>
      <path class="st1" d="M99.9,22.3h0c0-3,2.3-5.3,5.3-5.3s3.4.9,4.3,2.1l-2.1,1.6c-.6-.7-1.2-1.2-2.2-1.2-1.4,0-2.4,1.2-2.4,2.7h0c0,1.6,1,2.7,2.4,2.7s1.7-.5,2.3-1.2l2.1,1.5c-1,1.3-2.2,2.3-4.5,2.3s-5.2-2.2-5.2-5.2Z"/>
      <path class="st1" d="M110.1,17.2h2.8v10.1h-2.8v-10.1Z"/>
      <path class="st1" d="M114.1,17.2h3.9c3.6,0,5.7,2.1,5.7,5h0c0,3-2.1,5.1-5.8,5.1h-3.9v-10.1ZM118.1,24.9c1.7,0,2.8-.9,2.8-2.6h0c0-1.7-1.1-2.6-2.8-2.6h-1.1v5.2h1.1Z"/>
      <path class="st1" d="M127.2,17.2h2.7l4.3,10.2h-3l-.7-1.8h-3.9l-.7,1.8h-3l4.3-10.2ZM129.7,23.4l-1.1-2.9-1.1,2.9h2.3Z"/>
      <path class="st1" d="M133.6,25.9l1.6-1.9c1,.8,2.1,1.2,3.3,1.2s1.2-.3,1.2-.7h0c0-.5-.3-.7-1.7-1-2.2-.5-3.8-1.1-3.8-3.2h0c0-1.9,1.5-3.3,3.9-3.3s3.1.5,4.2,1.3l-1.4,2c-.9-.7-1.9-1-2.8-1s-1,.3-1,.7h0c0,.5.3.7,1.8,1,2.3.5,3.8,1.3,3.8,3.2h0c0,2.1-1.6,3.3-4.1,3.3s-3.5-.6-4.8-1.7Z"/>
    </g>
    <path class="st1" d="M31.4,21.3c3.9-1.7,4.4-5.9,4.1-8.1l-1.9.3c0,.2.6,4.6-2.9,6.1-.4-.6-.8-1.1-1.1-1.4,0,0,0,0,0-.1,0-2.1-3.5-6.5-4.7-7.6-.7-.6-1.5-1.4-2.6-1.4s-2.1.6-3.6,2.2c-2.4,2.4-3.7,6.3-4,7.3-.2.2-.5.6-.9,1.2-4-1.4-3.4-6.1-3.3-6.3l-1.9-.3c-.3,2.3.3,6.8,4.5,8.3-.2.6-.3,1.2-.4,1.9h-3.5v1.9h3.5c0,.6.1,1.1.2,1.6-1.8.7-3.8,2.5-3.8,6.2h1.9c0-2.9,1.4-4,2.5-4.4,1.4,3,4.5,4.8,8.9,4.8s6.7-2.1,8-4.7c1,.5,2.4,1.6,2.4,4.4h1.9c0-3.6-1.9-5.4-3.6-6.2.2-.6.3-1.1.3-1.7h3.2v-1.9h-3.2c0-.8-.1-1.5-.3-2.1M18.5,14.6c1.5-.5,4.6-1.3,7.4,0,.9,1.3,1.7,2.6,1.8,3.3-1.9.9-4.2,1.7-6.5,1.8-.5,0-1,0-1.4,0-1-.1-2.1-.5-3-1,.3-.9.9-2.4,1.8-3.9M29.8,23.3v.9c-.1,2.2-1.1,7-6.8,7.3v-6.3h-1.9v6.2c-5.5-.6-6.4-4.6-6.4-7s.7-3.5,1.1-4.2c.8.5,2.3,1.1,4.6,1.2.2,0,.5,0,.7,0s0,0,0,0c0,0,0,0,0,0,3.3,0,6-1.2,7.1-1.8.5.5,1.3,1.7,1.4,3.7h0Z"/>
  </g>
</svg>